<svg xmlns="http://www.w3.org/2000/svg" aria-hidden="true" role="img"  width="25" height="25"  viewBox="0 -50 1024 1024"><path d="M170.666667 810.666667l682.666666 0 0 42.666666-682.666666 0 0-42.666666Z" fill="#666666" /><path d="M256 435.2v290.133333h85.333333v-290.133333H256z m0-42.666667h85.333333c23.5648 0 42.666667 19.101867 42.666667 42.666667v290.133333c0 23.5648-19.101867 42.666667-42.666667 42.666667H256c-23.5648 0-42.666667-19.101867-42.666667-42.666667v-290.133333c0-23.5648 19.101867-42.666667 42.666667-42.666667zM469.333333 170.666667v554.666666h85.333334V170.666667h-85.333334z m0-42.666667h85.333334c23.5648 0 42.666667 19.101867 42.666666 42.666667v554.666666c0 23.5648-19.101867 42.666667-42.666666 42.666667h-85.333334c-23.5648 0-42.666667-19.101867-42.666666-42.666667V170.666667c0-23.5648 19.101867-42.666667 42.666666-42.666667zM682.666667 341.333333v384h85.333333V341.333333h-85.333333z m0-42.666666h85.333333c23.5648 0 42.666667 19.101867 42.666667 42.666666v384c0 23.5648-19.101867 42.666667-42.666667 42.666667h-85.333333c-23.5648 0-42.666667-19.101867-42.666667-42.666667V341.333333c0-23.5648 19.101867-42.666667 42.666667-42.666666z" fill="#666666" />
</svg>